<?xml version="1.0" encoding="UTF-8" standalone="no"?>
<!DOCTYPE svg PUBLIC "-//W3C//DTD SVG 1.1//EN" "http://www.w3.org/Graphics/SVG/1.1/DTD/svg11.dtd">
<svg width="100%" height="100%" viewBox="0 0 2404 972" version="1.1" xmlns="http://www.w3.org/2000/svg" xmlns:xlink="http://www.w3.org/1999/xlink" xml:space="preserve" xmlns:serif="http://www.serif.com/" style="fill-rule:evenodd;clip-rule:evenodd;stroke-linejoin:round;stroke-miterlimit:2;">
    <g transform="matrix(1,0,0,1,-552,-754)">
        <g transform="matrix(1.37937,0,0,1.37937,-1884.96,-218.453)">
            <g transform="matrix(1,0,0,1,115.995,0)">
                <path d="M1987.87,1409.65C1924.36,1409.65 1866.53,1396.79 1814.38,1371.07C1762.24,1345.35 1720.81,1306.83 1690.09,1255.51C1659.37,1204.19 1650.21,1135.67 1650.9,1059.55C1651.57,984.546 1667.04,920.565 1697.3,867.602C1727.57,814.64 1768.83,774.34 1821.08,746.702C1873.34,719.065 1932.15,705.246 1997.51,705.246C2062.75,705.246 2118.09,716.965 2163.53,740.402C2208.97,763.84 2244.82,795.09 2271.05,834.152C2297.29,873.215 2314.25,916.208 2321.92,963.133L2170.01,963.133C2165.3,930.446 2153.21,905.583 2133.75,888.546C2114.28,871.508 2092.19,859.858 2067.47,853.596C2042.76,847.333 2019.43,844.202 1997.51,844.202C1931.15,844.202 1881.06,862.083 1847.24,897.846C1813.42,933.608 1796.51,983.771 1796.51,1048.33C1796.51,1118.01 1807.17,1176.65 1840.18,1214.67C1873.2,1252.69 1923.11,1271.7 1989.91,1271.7C2013.24,1271.7 2037.55,1268.2 2062.85,1261.2C2088.15,1254.2 2110.5,1241.53 2129.9,1223.2C2149.3,1204.86 2167.15,1174.05 2171.75,1140.36L2324.87,1140.36C2316.63,1188.41 2293.4,1237.41 2266.88,1277.77C2240.36,1318.12 2204.06,1350.19 2157.98,1373.97C2111.9,1397.76 2055.2,1409.65 1987.87,1409.65Z" style="fill:white;fill-rule:nonzero;"/>
            </g>
            <path d="M2238.24,705.246L3039.62,705.246C3014.82,712.578 2992.06,722.246 2971.32,734.213C2924.59,761.181 2888.04,797.483 2861.66,843.115L2707.18,843.115L2707.18,1262.18C2707.18,1301.29 2691.64,1338.8 2663.99,1366.45C2636.33,1394.11 2598.82,1409.65 2559.71,1409.65L2559.71,843.115L2412.88,843.115C2409.22,836.854 2405.35,830.683 2401.26,824.603C2373.46,783.206 2335.53,750.02 2287.38,725.182C2272.07,717.286 2255.69,710.635 2238.24,705.246Z" style="fill:white;fill-rule:nonzero;"/>
            <g transform="matrix(1,0,0,1,-115.995,0)">
                <path d="M3285.7,1409.65C3174.9,1409.65 3090.26,1377.85 3031.79,1314.25C2973.31,1250.65 2944.08,1164.85 2944.08,1056.85C2944.08,985.646 2956.72,923.846 2982.03,871.446C3007.33,819.046 3045.28,778.246 3095.88,749.046C3146.47,719.846 3209.75,705.246 3285.7,705.246C3396.62,705.246 3480.96,737.046 3538.69,800.646C3596.43,864.246 3625.3,949.646 3625.3,1056.85C3625.3,1126.45 3612.45,1187.85 3586.75,1241.05C3561.05,1294.25 3523.07,1335.65 3472.82,1365.25C3422.56,1394.85 3360.19,1409.65 3285.7,1409.65ZM3283.68,1267.45C3327.95,1267.45 3364.66,1258.15 3393.79,1239.57C3422.93,1220.99 3444.73,1195.66 3459.19,1163.58C3473.66,1131.5 3480.89,1095.92 3480.89,1056.85C3480.89,1017.08 3473.72,981.021 3459.38,948.658C3445.04,916.296 3423.28,890.655 3394.08,871.736C3364.88,852.818 3328.08,843.358 3283.68,843.358C3219.88,843.358 3171.22,863.199 3137.72,902.88C3104.21,942.561 3087.46,993.883 3087.46,1056.85C3087.46,1095.12 3094.63,1130.3 3108.97,1162.38C3123.32,1194.46 3144.92,1219.99 3173.78,1238.97C3202.64,1257.95 3239.28,1267.45 3283.68,1267.45Z" style="fill:white;fill-rule:nonzero;"/>
            </g>
        </g>
    </g>
</svg>
