<?xml version="1.0" encoding="UTF-8"?>
<svg id="Layer_2" xmlns="http://www.w3.org/2000/svg" viewBox="0 0 1660.03 652.67">
  <defs>
    <style>
      .cls-1 {
        fill: #ffffff;
      }
    </style>
  </defs>
  <g id="Layer_1-2" data-name="Layer_1">
    <g>
      <path class="cls-1" d="M316.9,648.23c-58.56,0-111.92-11.86-160.11-35.58s-86.55-59.48-115.08-107.3S-.72,398.44.03,328.02c.73-69.69,15-128.98,42.8-177.91S108.61,63.94,156.79,38.36C204.98,12.8,259.47,0,320.25,0s111.19,10.75,153.44,32.25,75.41,50.42,99.5,86.73,39.84,76.34,47.27,120.08h-138.98c-4.45-31.12-15.58-54.67-33.36-70.61-17.8-15.94-38.38-26.86-61.72-32.8-23.34-5.92-45.39-8.89-66.14-8.89-61.53,0-108.22,16.69-140.09,50.03-31.88,33.36-47.81,80.42-47.81,141.2,0,65.23,15.56,115.64,46.69,151.22,31.12,35.59,77.83,53.38,140.11,53.38,22.22,0,45.02-3.33,68.38-10,23.34-6.67,44.11-18.72,62.27-36.14s29.45-41.7,33.91-72.84h138.98c-7.41,44.48-23.34,85.44-47.81,122.88s-58,67.08-100.62,88.95c-42.62,21.86-95.06,32.8-157.33,32.8Z"/>
      <path class="cls-1" d="M311.33,125.64V0h1031.82v125.64H311.33ZM892.85,31.14v541.25c0,35.74-28.98,64.72-64.72,64.72h-69.81V31.14h134.53Z"/>
      <path class="cls-1" d="M1345.37,652.67c-102.3,0-180.5-29.45-234.61-88.39-54.11-58.92-81.16-138.42-81.16-238.5,0-65.97,11.67-123.22,35.02-171.78,23.34-48.55,58.38-86.34,105.08-113.41C1216.39,13.53,1274.95,0,1345.37,0c103.03,0,181.22,29.47,234.59,88.41s80.06,138.06,80.06,237.38c0,64.5-11.86,121.39-35.58,170.67-23.72,49.3-58.94,87.66-105.62,115.08-46.7,27.42-104.52,41.14-173.45,41.14ZM1343.15,522.59c41.5,0,75.97-8.52,103.41-25.58,27.42-17.05,47.8-40.58,61.14-70.61,13.34-30.02,20.02-63.56,20.02-100.62s-6.67-70.78-20.02-101.17-33.53-54.48-60.59-72.28c-27.06-17.78-61.7-26.69-103.95-26.69-59.31,0-104.72,18.53-136.22,55.59s-47.25,85.25-47.25,144.55c0,36.33,6.84,69.5,20.56,99.52,13.72,30.03,33.92,53.75,60.61,71.17s60.78,26.12,102.3,26.12Z"/>
    </g>
  </g>
</svg>